<?xml version="1.0" standalone="no"?><!DOCTYPE svg PUBLIC "-//W3C//DTD SVG 1.1//EN" "http://www.w3.org/Graphics/SVG/1.1/DTD/svg11.dtd"><svg t="1570851185613" class="icon" viewBox="0 0 1024 1024" version="1.1" xmlns="http://www.w3.org/2000/svg" p-id="2551" xmlns:xlink="http://www.w3.org/1999/xlink" width="16" height="16"><defs><style type="text/css"></style></defs><path d="M508.8 836.8h6.4c177.6 0 321.6-144 321.6-321.6v-6.4c0-177.6-144-321.6-321.6-321.6h-6.4c-177.6 0-321.6 144-321.6 321.6v6.4c0 177.6 144 321.6 321.6 321.6zM219.2 508.8c0-160 129.6-289.6 289.6-289.6h6.4c160 0 289.6 129.6 289.6 289.6v6.4c0 160-129.6 289.6-289.6 289.6h-6.4c-160 0-289.6-129.6-289.6-289.6v-6.4z" fill="#1296db" p-id="2552"></path><path d="M659.2 619.2l-9.6-11.2c-40 38.4-96 60.8-152 60.8h-3.2v16h3.2c59.2 0 118.4-24 161.6-65.6zM400 476.8c24 0 44.8-20.8 44.8-44.8s-19.2-44.8-44.8-44.8-44.8 20.8-44.8 44.8 20.8 44.8 44.8 44.8z m0-75.2c16 0 28.8 12.8 28.8 28.8s-12.8 28.8-28.8 28.8-28.8-12.8-28.8-28.8 12.8-28.8 28.8-28.8zM624 476.8c24 0 44.8-20.8 44.8-44.8s-19.2-44.8-44.8-44.8-44.8 20.8-44.8 44.8 20.8 44.8 44.8 44.8z m0-75.2c16 0 28.8 12.8 28.8 28.8s-12.8 30.4-28.8 30.4-28.8-12.8-28.8-28.8 14.4-30.4 28.8-30.4z" fill="#1296db" p-id="2553"></path></svg>